<svg height="800" viewBox="0 0 211.66666 211.66666" width="800" xmlns="http://www.w3.org/2000/svg"><path d="m134.78253 19.341998 9.156-16.651315c.48772-.873844.1688-1.989169-.71396-2.466771-.89653-.485742-2.00017-.152001-2.47157.719123l-9.25409 16.816836c-7.78259-3.438256-16.49439-5.375865-25.70215-5.367705-9.191452-.008-17.886892 1.918569-25.644962 5.351425l-9.25952-16.781596c-.47413-.884644-1.59141-1.207585-2.46341-.724563-.88833.472202-1.21533 1.582087-.72209 2.455931l9.16144 16.635035c-18.00132 9.248321-30.16025 26.846719-30.14937 47.05841l118.169452-.012c.004-20.206251-12.13169-37.774768-30.10577-47.03397zm-55.859662 25.728674c-2.72229-.004-4.9377-2.21169-4.9377-4.933542 0-2.708251 2.21541-4.933501 4.94042-4.933501 2.74134 0 4.95675 2.22525 4.95947 4.933501 0 2.721852-2.21813 4.933542-4.96219 4.933542zm85.562112 25.839957.02 84.787101c-.003 5.09638-2.77405 9.50072-6.86155 11.93493-2.09825 1.25101-4.52346 2.01625-7.14219 2.01357l-9.56748.004.008 28.93353c0 7.21308-5.87235 13.07738-13.12086 13.07198-.90469 0-1.78757-.0896-2.6405-.2632-5.97046-1.21304-10.4776-6.49123-10.4858-12.79518v-28.94441h-17.709572l.008 28.94441c0 6.30939-4.49894 11.58214-10.4776 12.8033-.85565.1736-1.74125.266-2.64597.266-6.32743 0-11.61938-4.48306-12.84018-10.43692-.1744-.84941-.2672-1.72865-.2672-2.62958l-.012-28.94445h-9.53201c-5.51538 0-10.22964-3.18861-12.51045-7.79375-.92369-1.86141-1.49049-3.92926-1.48777-6.15179l-.02-84.778541zm-135.492212-2.447771c7.24576 0 13.1263 5.850746 13.1263 13.061059v54.713843c0 .90365-.0899 1.78561-.26436 2.63769-1.21808 5.96203-6.50729 10.43153-12.85108 10.43965-2.67049-.004-5.15024-.80868-7.22397-2.17637-3.54794-2.33653-5.89416-6.33383-5.89688-10.90097l-.008-54.711123c.003-7.204913 5.87236-13.063779 13.11812-13.063779zm153.670652-.016c7.24848 0 13.12086 5.845306 13.12086 13.063779l.008 54.705963c-.003 7.22931-5.86962 13.0665-13.11266 13.0665-7.25123.004-13.12086-5.83719-13.12358-13.0611l-.004-54.705643c-.003-7.218473 5.86963-13.074659 13.11266-13.069259zm-49.93282-33.261789c2.71681.004 4.94586 2.23609 4.94586 4.944381 0 2.721852-2.21541 4.928102-4.94586 4.928102-2.73041 0-4.95946-2.20081-4.95402-4.933542 0-2.702851 2.21813-4.928101 4.95402-4.938941z" fill="#fff" fill-rule="evenodd" stroke-width="10.5834"/></svg>