<svg height="800" viewBox="0 0 24 24" width="800" xmlns="http://www.w3.org/2000/svg"><g fill="#fff" transform="matrix(1.0434783 0 0 1.0434783 -.52174 -1.043478)"><path d="m5 2.5a.5.5 0 0 0 -.5.5v18a.5.5 0 0 0 .5.5h1.75a.75.75 0 0 1 0 1.5h-1.75a2 2 0 0 1 -2-2v-18a2 2 0 0 1 2-2h9.982a2 2 0 0 1 1.414.586l4.018 4.018a2 2 0 0 1 .586 1.414v13.982a2 2 0 0 1 -2 2h-2.75a.75.75 0 0 1 0-1.5h2.75a.5.5 0 0 0 .5-.5v-13.982a.5.5 0 0 0 -.146-.354l-4.018-4.018a.5.5 0 0 0 -.354-.146z"/><path d="m11.5 15.75a.75.75 0 0 1 .75-.75h1a.75.75 0 0 1 0 1.5h-1a.75.75 0 0 1 -.75-.75zm.75-3.75a.75.75 0 0 0 0 1.5h1a.75.75 0 0 0 0-1.5zm-.75-2.25a.75.75 0 0 1 .75-.75h1a.75.75 0 0 1 0 1.5h-1a.75.75 0 0 1 -.75-.75zm.75-3.75a.75.75 0 0 0 0 1.5h1a.75.75 0 0 0 0-1.5zm-.75-2.25a.75.75 0 0 1 .75-.75h1a.75.75 0 0 1 0 1.5h-1a.75.75 0 0 1 -.75-.75zm-1.75 9.75a.75.75 0 0 0 0 1.5h1a.75.75 0 0 0 0-1.5zm-.75-2.25a.75.75 0 0 1 .75-.75h1a.75.75 0 0 1 0 1.5h-1a.75.75 0 0 1 -.75-.75zm.75-3.75a.75.75 0 0 0 0 1.5h1a.75.75 0 0 0 0-1.5zm-.75-2.25a.75.75 0 0 1 .75-.75h1a.75.75 0 0 1 0 1.5h-1a.75.75 0 0 1 -.75-.75z"/><path d="m11 17a2 2 0 0 0 -2 2v4.25c0 .414.336.75.75.75h3.5a.75.75 0 0 0 .75-.75v-4.25a2 2 0 0 0 -2-2zm-.5 2a.5.5 0 0 1 .5-.5h1a.5.5 0 0 1 .5.5v3.5h-2z" fill-rule="evenodd"/></g></svg>