<svg height="800" viewBox="0 0 211.66666 211.66666" width="800" xmlns="http://www.w3.org/2000/svg"><path d="m85.930863 85.141137h52.916667v52.916663h-52.916667z" fill="none" opacity="0"/><g fill="#fff" transform="matrix(.8881722 0 0 .8881722 146.89131 103.14973)"><g transform="matrix(.70193159 .71224437 -.71224437 .70193159 13.230273 94.601577)"><g transform="matrix(.42030127 0 0 .42030127 -211.8247 -68.763328)"><path d="m317.951 183.656h-134.295v142.688h134.295z"/><path d="m301.164 133.295h-100.721v50.361h100.721z"/><path d="m267.59 376.705h-33.574v117.508h33.574z"/></g><path d="m-95.828274 89.566262h-21.166796c-2.11663 0-3.52759-1.410951-3.52759-3.527589v-17.638783h28.222395v17.638783c-.000421 2.116638-1.411372 3.527589-3.528009 3.527589" stroke-width=".420301"/></g><g transform="matrix(-.70193157 -.71224439 .71224439 -.70193157 -105.685264 -88.558606)"><g transform="matrix(.42030127 0 0 .42030127 -211.8247 -68.763328)"><path d="m317.951 183.656h-134.295v142.688h134.295z"/><path d="m301.164 133.295h-100.721v50.361h100.721z"/><path d="m267.59 376.705h-33.574v117.508h33.574z"/></g><path d="m-95.828274 89.566262h-21.166796c-2.11663 0-3.52759-1.410951-3.52759-3.527589v-17.638783h28.222395v17.638783c-.000421 2.116638-1.411372 3.527589-3.528009 3.527589" stroke-width=".420301"/></g></g></svg>