<svg height="800" viewBox="0 0 1024 1024" width="800" xmlns="http://www.w3.org/2000/svg" xmlns:xlink="http://www.w3.org/1999/xlink"><linearGradient id="a"><stop offset="0" stop-color="#9575e0"/><stop offset="1" stop-color="#fa8d6a"/></linearGradient><linearGradient id="b" gradientUnits="userSpaceOnUse" x1="171.57385" x2="824.44171" xlink:href="#a" y1="842.57928" y2="842.57928"/><linearGradient id="c" gradientUnits="userSpaceOnUse" x1="496.21579" x2="824.2934" xlink:href="#a" y1="654.20801" y2="654.20801"/><linearGradient id="d" gradientUnits="userSpaceOnUse" x1="171.72215" x2="498.00778" xlink:href="#a" y1="744.37177" y2="744.37177"/><linearGradient id="e" gradientUnits="userSpaceOnUse" x1="172.84894" x2="824.3399" xlink:href="#a" y1="533.96344" y2="533.96344"/><linearGradient id="f" gradientUnits="userSpaceOnUse" x1="456.06735" x2="756.92181" xlink:href="#a" y1="592.14392" y2="592.14392"/><linearGradient id="g" gradientUnits="userSpaceOnUse" x1="385.95059" x2="686.79962" xlink:href="#a" y1="529.90405" y2="529.90405"/><linearGradient id="h" gradientUnits="userSpaceOnUse" x1="315.82837" x2="616.68286" xlink:href="#a" y1="467.66452" y2="467.66452"/><linearGradient id="i" gradientUnits="userSpaceOnUse" x1="245.70616" x2="546.56061" xlink:href="#a" y1="405.42389" y2="405.42389"/><linearGradient id="j" gradientUnits="userSpaceOnUse" x1="639.57031" x2="806.71106" xlink:href="#a" y1="767.0332" y2="767.0332"/><linearGradient id="k" gradientTransform="matrix(-1 0 0 1 1001.2336 0)" gradientUnits="userSpaceOnUse" x1="465.67007" x2="535.56354" xlink:href="#a" y1="828.59509" y2="828.59509"/><path d="m0 0h1024v1024h-1024z" fill="#131017" opacity="0" stroke-linecap="round" stroke-width="1.28"/><path d="m172.261392 465.745702-.539234 376.625021 326.285617 180.627064v-375.786213z" fill="url(#d)"/><path d="m521.750414 667.549957c-13.105021-7.271489-32.768-8.170213-43.890383-1.998978l-298.893617 165.849872c-11.122383 6.171234-9.510128 17.081191 3.594893 24.352681l291.70383 161.857362c13.105021 7.271489 32.768 8.164766 43.890383 1.998978l298.893617-165.849872c11.122383-6.171234 9.510128-17.081191-3.594894-24.352681z" fill="url(#b)"/><path d="m532.720286 13.148596c0-11.035234-6.737702-16.122553-15.044085-11.362043l-270.766298 155.321192c-8.300936 4.760511-15.044085 17.582298-15.044085 28.617532v596.098723c0 11.029787 6.743149 16.122553 15.044085 11.362043l270.766298-155.321192c8.306383-4.760511 15.044085-17.587745 15.044085-28.617532z" fill="#c4cadd"/><path d="m526.717903.604596 14.542979 8.279149-15.937362 7.473021-6.955574-7.974128z" fill="#c4cadd"/><path d="m546.560626 21.090043c0-11.035234-6.743149-16.128-15.044085-11.36749l-270.766298 155.321192c-8.300936 4.760511-15.044085 17.587745-15.044085 28.622978v596.093277c0 11.035234 6.743149 16.128 15.044085 11.362043l270.766298-155.315745c8.300936-4.765957 15.044085-17.587745 15.044085-28.622979z" fill="url(#i)"/><path d="m602.842499 75.389277c0-11.035234-6.743149-16.128-15.044085-11.362043l-270.766298 155.315745c-8.300936 4.765957-15.044085 17.587745-15.044085 28.622978v596.093277c0 11.035234 6.743149 16.128 15.044085 11.367489l270.766298-155.321191c8.300936-4.760511 15.044085-17.587745 15.044085-28.622979z" fill="#c4cadd"/><path d="m596.840116 62.845277 14.542978 8.279149-15.937361 7.467574-6.955575-7.968681z" fill="#c4cadd"/><path d="m616.682839 83.325277c0-11.029787-6.743149-16.122553-15.044085-11.362043l-270.766298 155.321192c-8.306383 4.760511-15.044085 17.587745-15.044085 28.617531v596.098724c0 11.035234 6.737702 16.128 15.044085 11.362042l270.766298-155.315744c8.300936-4.765957 15.044085-17.587745 15.044085-28.622979z" fill="url(#h)"/><path d="m672.964711 137.629957c0-11.035234-6.743149-16.128-15.044085-11.362042l-270.766297 155.315745c-8.306383 4.765957-15.044085 17.587745-15.044086 28.622978v596.093277c0 11.035234 6.737702 16.128 15.044086 11.367489l270.766297-155.321191c8.300936-4.760511 15.044085-17.587745 15.044085-28.622979z" fill="#c4cadd"/><path d="m666.956882 125.080511 14.542978 8.284595-15.937361 7.467575-6.950128-7.974128z" fill="#c4cadd"/><path d="m686.799605 145.565957c0-11.029787-6.737702-16.122553-15.038638-11.362042l-270.771745 155.321191c-8.300936 4.760511-15.038638 17.587745-15.038638 28.617532v596.098724c0 11.035234 6.737702 16.122553 15.038638 11.362042l270.771745-155.321191c8.300936-4.760511 15.038638-17.582298 15.038638-28.617532z" fill="url(#g)"/><path d="m743.081477 199.870638c0-11.035234-6.737702-16.128-15.038638-11.367489l-270.771745 155.321191c-8.300936 4.760511-15.038638 17.587745-15.038638 28.622979v596.093277c0 11.035234 6.737702 16.128 15.038638 11.362042l270.771745-155.315744c8.300936-4.765957 15.038638-17.587745 15.038638-28.622979z" fill="#c4cadd"/><path d="m737.079094 187.321191 14.542979 8.284596-15.937362 7.467575-6.955574-7.974128z" fill="#c4cadd"/><path d="m756.921818 207.806638c0-11.035234-6.737702-16.122553-15.044085-11.362042l-270.766298 155.321191c-8.300936 4.760511-15.044085 17.582298-15.044085 28.617532v596.098724c0 11.029787 6.743149 16.122553 15.044085 11.362042l270.766298-155.321191c8.306383-4.760511 15.044085-17.587745 15.044085-28.617532z" fill="url(#f)"/><path d="m496.215775 642.592681 327.511149-178.088851.566468 379.40834-328.077617-69.011064z" fill="url(#c)"/><path d="m535.56352 636.43234-69.89345-2.8977v376.41256s8.90009 7.6909 22.16851 11.6453c4.33566 1.2909 9.15064 1.8247 14.2543 2.0371 9.984.4085 20.79047-4.0579 32.22332-10.0929z" fill="url(#k)"/><path d="m231.865818 422.432681v24.989957l-6.634213 3.829107c-9.733447 5.621106-8.513362 15.458043 2.728851 21.945191l250.264511 144.48749c11.242213 6.492596 28.274383 7.200681 38.00783 1.579574l255.722212-147.641191c9.733447-5.621106 8.513362-15.452596-2.728851-21.945192l-12.30434-7.102638v-26.662128l56.59234 34.347575c13.083234 7.554723 14.510298 18.998468 3.17549 25.540085l-297.570043 171.797787c-11.329362 6.541617-31.144851 5.719149-44.228085-1.830128l-291.219064-168.137532c-13.083234-7.554723-14.504851-18.993021-3.175489-25.534638z" fill="url(#e)"/><path d="m245.967605 597.416851-14.101787-7.03183v199.293277l13.84034 11.590808z" fill="#c4cadd"/><path d="m302.086073 629.716426v197.817191l14.417702 8.32817v-197.926127zm70.149447 40.502468v198.17668l14.771745 8.529703v-198.443575z" fill="#c4cbdc"/><path d="m549.360286 891.827745v-141.932936s-6.601532-30.08817 43.699745-50.301277l196.433702-113.408s10.446979-9.624511 23.306893-.849702c12.859915 8.769362 28.601191 16.514723 28.601192 16.514723s-227.878128 133.61566-229.653787 132.59166c-1.781106-1.029447-19.684766 5.670128-19.684766 34.124255v166.067745l-32.250554-18.617192s-10.452426-9.23234-10.452425-24.189276z" fill="#131017"/><path d="m847.671094 614.89566c0-10.893617-6.634213-15.904681-14.798978-11.193192l-229.681022 132.608c-8.170213 4.716936-14.798979 17.386213-14.798978 28.27983v157.864851c0 10.88817 6.628766 15.904681 14.798978 11.187745l229.681022-132.608c8.164766-4.711489 14.798979-17.386213 14.798978-28.274383z" fill="#1b1720"/><path d="m806.711094 667.609872c0-7.424-4.520851-10.839149-10.087489-7.625532l-146.965787 84.850383c-5.566638 3.213617-10.087489 11.846809-10.087489 19.270809s4.520851 10.844596 10.087489 7.625532l146.965787-84.850383c5.566638-3.213617 10.087489-11.846809 10.087489-19.270809zm0 52.049702c0-7.424-4.520851-10.839149-10.087489-7.625531l-146.965787 84.850383c-5.566638 3.213617-10.087489 11.846809-10.087489 19.270808s4.520851 10.844596 10.087489 7.625532l146.965787-84.850383c5.566638-3.213617 10.087489-11.846809 10.087489-19.270809zm0 50.29583c0-7.424-4.520851-10.839149-10.087489-7.625532l-146.965787 84.850383c-5.566638 3.213617-10.087489 11.852255-10.087489 19.276256s4.520851 10.839149 10.087489 7.625532l146.965787-84.850383c5.566638-3.213617 10.087489-11.852255 10.087489-19.276256z" fill="url(#j)"/></svg>