<svg height="800" viewBox="0 0 512 512" width="800" xmlns="http://www.w3.org/2000/svg"><g fill="#fff"><path d="m432.002 304h-16.002c-4.418 0-8 3.582-8 8s3.582 8 8 8h16.002c4.418 0 8-3.582 8-8s-3.582-8-8-8z"/><path d="m336 384h-160c-13.233 0-24 10.767-24 24s10.767 24 24 24h160c13.233 0 24-10.767 24-24s-10.767-24-24-24zm0 32h-160c-4.411 0-8-3.589-8-8s3.589-8 8-8h160c4.411 0 8 3.589 8 8s-3.589 8-8 8z"/><path d="m88 256c4.418 0 8-3.582 8-8v-136h320v136c0 4.418 3.582 8 8 8s8-3.582 8-8v-136c0-8.822-7.178-16-16-16v-16c0-8.822-7.178-16-16-16v-16c0-8.822-7.178-16-16-16v-16c0-8.822-7.178-16-16-16h-224c-8.822 0-16 7.178-16 16v16c-8.822 0-16 7.178-16 16v16c-8.822 0-16 7.178-16 16v16c-8.822 0-16 7.178-16 16v136c0 4.418 3.582 8 8 8zm56-240h224v16h-224zm-16 32h256v16h-256zm-16 32h288v16h-288z"/><path d="m511.891 293.741c-.179-1.91-.585-3.753-1.187-5.507l-30.844-140.237c-1.959-11.603-11.869-19.997-23.664-19.997h-.196c-4.418 0-8 3.582-8 8s3.582 8 8 8h.196c3.961 0 7.284 2.84 7.902 6.752.025.158.054.315.088.471l26.6 120.944c-.914-.106-1.843-.167-2.786-.167h-464c-.943 0-1.872.061-2.787.167l26.6-120.944c.034-.156.063-.313.088-.471.619-3.912 3.942-6.752 7.903-6.752h.196c4.418 0 8-3.582 8-8s-3.582-8-8-8h-.196c-11.795 0-21.706 8.394-23.664 19.997l-30.843 140.237c-.602 1.754-1.008 3.597-1.187 5.507-.088.549-.118 1.094-.094 1.63-.006.21-.016.418-.016.629v32 160c0 13.234 10.766 24 24 24h464c13.234 0 24-10.766 24-24v-160-32c0-.211-.01-.419-.016-.628.025-.537-.006-1.082-.093-1.631zm-15.891 194.259c0 4.411-3.589 8-8 8h-464c-4.411 0-8-3.589-8-8v-160c0-4.411 3.589-8 8-8h359.999c4.418 0 8-3.582 8-8s-3.582-8-8-8h-359.999c-2.804 0-5.496.488-8 1.376v-9.376c0-.057.007-.112.009-.169l.669-3.041c1.24-2.816 4.053-4.79 7.323-4.79h464c3.269 0 6.083 1.974 7.323 4.79l.669 3.041c.001.057.009.112.009.169v9.376c-2.504-.888-5.196-1.376-8-1.376h-24c-4.418 0-8 3.582-8 8s3.582 8 8 8h24c4.411 0 8 3.589 8 8v160z"/><path d="m232 192c4.418 0 8-3.582 8-8s-3.582-8-8-8h-64c-4.418 0-8 3.582-8 8s3.582 8 8 8z"/><path d="m288 152c0-4.418-3.582-8-8-8h-112c-4.418 0-8 3.582-8 8s3.582 8 8 8h112c4.418 0 8-3.582 8-8z"/><path d="m128 160h8c4.418 0 8-3.582 8-8s-3.582-8-8-8h-8c-4.418 0-8 3.582-8 8s3.582 8 8 8z"/><path d="m128 192h8c4.418 0 8-3.582 8-8s-3.582-8-8-8h-8c-4.418 0-8 3.582-8 8s3.582 8 8 8z"/><path d="m128 240c-4.418 0-8 3.582-8 8s3.582 8 8 8h72c4.418 0 8-3.582 8-8s-3.582-8-8-8z"/><path d="m264 216c0-4.418-3.582-8-8-8h-128c-4.418 0-8 3.582-8 8s3.582 8 8 8h128c4.418 0 8-3.582 8-8z"/><path d="m384 208h-40c-4.418 0-8 3.582-8 8s3.582 8 8 8h40c4.418 0 8-3.582 8-8s-3.582-8-8-8z"/><path d="m288 256h96c4.418 0 8-3.582 8-8s-3.582-8-8-8h-96c-4.418 0-8 3.582-8 8s3.582 8 8 8z"/></g></svg>