<svg height="800" viewBox="0 0 211.66666 211.66666" width="800" xmlns="http://www.w3.org/2000/svg"><g fill="#fff" transform="matrix(.41173491 0 0 .41173491 .427752 .289547)"><path d="m419.955 297.684h-327.911c-25.353-.008-48.476 10.33-65.076 26.954-16.63 16.592-26.968 39.73-26.968 65.083s10.338 48.491 26.968 65.084c16.585 16.63 39.723 26.968 65.076 26.96h327.91c50.86-.008 92.045-41.206 92.045-92.044-.015-50.837-41.184-92.029-92.044-92.037zm37.245 129.275c-9.6 9.562-22.63 15.415-37.246 15.423h-327.91c-14.6-.008-27.645-5.861-37.23-15.423-9.57-9.592-15.416-22.63-15.431-37.238.015-14.6 5.861-27.638 15.431-37.23 9.584-9.562 22.63-15.415 37.23-15.423h327.91c14.616.008 27.646 5.861 37.246 15.423 9.554 9.592 15.416 22.631 15.416 37.23 0 14.608-5.862 27.646-15.416 37.238z"/><path d="m339.271 366.406c-12.876 0-23.322 10.438-23.322 23.315 0 12.876 10.446 23.315 23.322 23.315 12.877 0 23.315-10.438 23.315-23.315s-10.438-23.315-23.315-23.315z"/><path d="m414.74 366.406c-12.877 0-23.338 10.438-23.338 23.315 0 12.876 10.461 23.315 23.338 23.315s23.308-10.438 23.308-23.315c-.001-12.877-10.431-23.315-23.308-23.315z"/><path d="m242.658 263.585c3.4 3.777 8.262 5.93 13.338 5.93 5.092 0 9.938-2.154 13.338-5.93l68.23-75.822c4.754-5.261 5.938-12.83 3.061-19.307-2.876-6.469-9.307-10.638-16.384-10.638h-32.061v-109.638c0-9.907-8.046-17.946-17.954-17.946h-36.461c-9.907 0-17.938 8.038-17.938 17.946v109.637h-32.061c-7.077 0-13.508 4.169-16.4 10.638-2.876 6.476-1.676 14.046 3.062 19.307z"/></g></svg>