<svg height="800" viewBox="0 0 211.66666 211.66666" width="800" xmlns="http://www.w3.org/2000/svg"><path d="m169.56922 21.29613-73.927489 73.928366c-3.35748.83476-6.60868.67316-8.90392-1.619-5.43667-5.436682 2.42832-17.327003 6.51424-22.718887 1.1764-1.549196.76892-2.085356-.99676-1.263332l-16.17434 7.527296c-1.76304.822-3.46988 3.04176-3.8844 4.943121-1.27958 5.8784-4.30859 17.633922-8.91402 22.239366-5.18155 5.18068-36.19574 11.20576-46.68881 13.126-1.91366.3428-3.48569 2.1868-3.64421 4.12988-1.29978 15.96048-9.2411605 34.6698-12.61223046 42.0096-.81456 1.76656-.11152 2.45112 1.65413996 1.63308 23.1307705-10.70956 39.4530905-5.43756 43.1930205-1.69456 3.25032 3.25208-6.48001 34.32909-9.84538 44.69349-.59939 1.84736.28588 2.59164 1.99973 1.66996l31.66979-17.09561c1.71298-.9226 3.42553-3.21696 3.8563-5.11568 2.06867-9.10284 8.0674-33.52944 14.21237-39.67616 5.31592-5.31592 14.403359-6.85368 19.384239-7.30644 1.9374-.1708 4.29456-1.55532 5.24304-3.25164l6.599-11.73224c.95552-1.69628.49796-2.07656-1.13512-1.01524-4.9488 3.22048-15.25348 8.42572-22.161199 1.51716-3.00968-3.00968-2.48976-8.1056-.42768-13.63448l83.447049-83.451909c1.50088-1.248404 5.2474-3.953785 8.3954-2.671133 0 0 11.91712-14.150892 19.9604-13.999396 0 0 2.75236-6.1800927 5.28428-11.0968567l-41.4818 9.3079037s3.47912 5.512201-.61564 10.617341zm-101.416039 124.04317-3.9709 3.96828c-1.37706 1.37616-3.60645 1.37616-4.98527 0l-10.58924-10.5866c-1.3753-1.38148-1.3753-3.60908 0-4.99012l3.97091-3.96828c1.37531-1.37792 3.60469-1.37792 4.98351 0l10.59099 10.58616c1.37531 1.38148 1.37531 3.60952 0 4.99056zm15.98023-20.96728c1.37708 1.37488 1.37708 3.60252 0 4.9822l-3.97001 3.97356c-1.37531 1.37264-3.60557 1.37264-4.98439 0l-10.59099-10.59188c-1.37531-1.37268-1.37531-3.6038 0-4.98176l3.97266-3.9718c1.37531-1.37792 3.60557-1.37792 4.98439 0l1.76831 1.76656 8.1482 8.15084z" fill="#fff" stroke-width=".439116"/></svg>