<svg fill="none" height="800" viewBox="0 0 24 24" width="800" xmlns="http://www.w3.org/2000/svg"><g transform="matrix(1.2511844 0 0 1.2511844 -3.096681 -3.614953)"><path d="m11 19h-6c-1.10457 0-2-.8954-2-2v-10c0-1.10457.89543-2 2-2h4.58579c.26521 0 .51961.10536.70711.29289l1.7071 1.70711h7c1.1046 0 2 .89543 2 2v1" stroke="#fff" stroke-linecap="round" stroke-linejoin="round" stroke-width="1.05"/><path d="m17.2426 19.4853-.7071.7071c.3906.3905 1.0237.3905 1.4142 0zm0-5.6568-.7071.7071c.1876.1875.4419.2929.7071.2929.2653 0 .5196-.1054.7071-.2929zm-2.1213 2.1213c-.3905-.3905-.3905-1.0237 0-1.4142l-1.4142-1.4142c-1.1716 1.1715-1.1716 3.071 0 4.2426zm2.8284 2.8284-2.8284-2.8284-1.4142 1.4142 2.8284 2.8284zm1.4143-2.8284-2.8285 2.8284 1.4142 1.4142 2.8285-2.8284zm0-1.4142c.3905.3905.3905 1.0237 0 1.4142l1.4142 1.4142c1.1715-1.1716 1.1715-3.0711 0-4.2426zm-1.4143 0c.3906-.3906 1.0237-.3906 1.4143 0l1.4142-1.4142c-1.1716-1.1716-3.0711-1.1716-4.2427 0zm-2.8284 0c.3905-.3906 1.0237-.3906 1.4142 0l1.4142-1.4142c-1.1715-1.1716-3.071-1.1716-4.2426 0z" fill="#fff"/></g></svg>