<svg height="800" viewBox="0 0 1024 1024" width="800" xmlns="http://www.w3.org/2000/svg"><path d="m341.33333 750.93333-68.26666-68.26666 409.6-409.6 68.26666 68.26666zm238.93334-102.4-238.93334 238.93334-204.98858-204.98859 238.93333-238.93333-68.07808-68.07808-238.933333 238.93333-68.266667 68.26667 273.06667 273.06666 68.07808 68.07807.18858.1886 68.26667-68.26667-.18858-.18858 238.93333-238.93333zm443.73333-307.2-68.26667-68.26666-273.06666-273.06667-68.26667 68.266667-238.93333 238.933333 68.07808 68.07808 238.93333-238.93333 204.98859 204.98858-238.93334 238.93334 68.07809 68.07808 238.93333-238.93333.18858.18858z" fill="#fff" stroke-width="1.88582"/></svg>