<svg height="800" viewBox="0 0 32 32" width="800" xmlns="http://www.w3.org/2000/svg"><path d="m16.199627 31.991594c-5.777523 0-10.4605418-4.684121-10.4605418-10.460542 0-3.754784 1.9841997-7.037192 4.9549928-8.882652v-6.5328841c0-3.3451712 2.712034-6.0561031 6.056103-6.0561031 3.344071 0 6.056103 2.7109319 6.056103 6.0561031v7.3080651c2.35087 1.918134 3.853885 4.836074 3.853885 8.107471 0 5.776421-4.68302 10.460542-10.460542 10.460542zm4.404439-25.8760781c0-2.1284449-1.724338-3.8538838-3.853885-3.8538838-2.128445 0-3.853883 1.7254389-3.853883 3.8538838v5.4956391c1.039447-.345749 2.147164-.540646 3.303329-.540646 1.576789 0 3.064388.357861 4.404439.982191zm-4.404439 6.6066591c-4.864702 0-8.8088773 3.944174-8.8088773 8.808877 0 4.864702 3.9441753 8.808877 8.8088773 8.808877s8.808877-3.944175 8.808877-8.808877c0-4.864703-3.944175-8.808877-8.808877-8.808877zm0 17.067199c-4.561897 0-8.2583224-3.696425-8.2583224-8.258322s3.6964254-8.258323 8.2583224-8.258323 8.258322 3.696426 8.258322 8.258323-3.696425 8.258322-8.258322 8.258322zm1.651664-10.460542c0-.911718-.739945-1.651664-1.651664-1.651664s-1.651665.739946-1.651665 1.651664c0 .78289.55496 1.406118 1.284996 1.578992l-1.284996 5.027667h3.371598l-1.446858-5.01115c.776283-.133234 1.378589-.780687 1.378589-1.595509z" fill="#fff" stroke-width="1.1011"/></svg>