<svg fill="none" height="800" stroke="#000" viewBox="0 0 64 64" width="800" xmlns="http://www.w3.org/2000/svg" xmlns:xlink="http://www.w3.org/1999/xlink"><linearGradient id="a" gradientUnits="userSpaceOnUse" x1="28.819263" x2="44.180737" xlink:href="#c" y1="45.452" y2="45.452"/><linearGradient id="b" gradientUnits="userSpaceOnUse" x1="38.288334" x2="44.180737" xlink:href="#c" y1="35.78825" y2="35.796864"/><linearGradient id="c"><stop offset="0" stop-color="#9575e0"/><stop offset="1" stop-color="#fa8d6a"/></linearGradient><linearGradient id="d" gradientUnits="userSpaceOnUse" x1="7.5" x2="36.5" xlink:href="#c" y1="32" y2="32"/><linearGradient id="e" gradientUnits="userSpaceOnUse" x1="18" x2="26" xlink:href="#c" y1="12" y2="12"/><linearGradient id="f" gradientUnits="userSpaceOnUse" x1="20" x2="24" xlink:href="#c" y1="52" y2="52"/><path d="m0 0h64v64h-64z" fill="#f38b72" opacity="0" stroke="none"/><g transform="matrix(1.1529191 0 0 1.1529191 2.208146 -4.919655)"><path d="m27.699531 55.999999-15.699531.000001c-2.2159978 0-4-1.784002-4-4v-40c0-2.2159978 1.7840022-4 4-4h20c2.215998 0 4 1.7840022 4 4v20" fill="none" stroke="url(#d)"/><path d="m18 12h8" stroke="url(#e)"/><path d="m20 52h4" stroke="url(#f)"/><g stroke="none"><path d="m44.180737 35.796862v19.310792a1.4373492 1.4373492 0 0 1 -1.437871 1.437871h-12.485732a1.4373492 1.4373492 0 0 1 -1.437871-1.437871v-19.310792a1.4378711 1.4378711 0 0 1 1.437871-1.438392h6.685709c.292792 0 .365339.07307.365339.365339v1.878888c0 .248952-.03757.614292-.286008.614292h1.715529c-.248431 0-.260957-.201459-.260957-.449889v-1.878888c0-.292272.0522-.529742.342375-.529742h3.924266a1.438393 1.438393 0 0 1 1.43735 1.438392z" fill="url(#a)"/><path d="m37.472585 34.733725v2.484829h-5.906492a.44988925.44988925 0 0 1 -.44989-.449888v-2.410196h5.981648a.37525565.37525565 0 0 1 .374734.375255z" fill="#f98d6b"/><path d="m41.747577 34.35847v2.409674a.44988925.44988925 0 0 1 -.449889.449888h-3.009353v-2.484307a.37525565.37525565 0 0 1 .374734-.375255z" fill="url(#b)"/><g fill="#9876dc"><path d="m32.042078 35.788513h.482769a.19467366.19467366 0 0 1 .194674.194672v1.235369h-.872118v-1.23589a.19467366.19467366 0 0 1 .194675-.194151z"/><path d="m33.320243 35.788513h.482769a.19467366.19467366 0 0 1 .195718.194151v1.23589h-.871595v-1.23589a.19467366.19467366 0 0 1 .193108-.194151z"/><path d="m34.60154 35.788513h.48277a.19467366.19467366 0 0 1 .194673.194672v1.235369h-.872117v-1.23589a.19467366.19467366 0 0 1 .194674-.194151z"/><path d="m35.881271 35.788513h.48277a.19467366.19467366 0 0 1 .192064.194151v1.23589h-.869507v-1.23589a.19467366.19467366 0 0 1 .194673-.194151z"/></g><path d="m39.136966 35.788513h.48277a.19467366.19467366 0 0 1 .194673.194672v1.235369h-.872116v-1.23589a.19467366.19467366 0 0 1 .194673-.194151z" fill="#f38b72"/><path d="m40.418264 35.788513h.482769a.19467366.19467366 0 0 1 .194674.194672v1.235369h-.873683v-1.23589a.19467366.19467366 0 0 1 .19624-.194151z" fill="#f38b72"/><path d="m40.055534 38.989928h1.561042a.50155866.50155866 0 0 1 .501559.501559.50155866.50155866 0 0 1 -.501559.501559h-1.561042z" fill="#f98d6b"/><path d="m44.180737 39.993046h-1.561043a.50155866.50155866 0 0 1 -.501559-.501559.50155866.50155866 0 0 1 .501559-.501559h1.561043z" fill="#9876dc"/><path d="m28.819263 52.612387h1.561042a.50155866.50155866 0 0 1 .501559.501558.50155866.50155866 0 0 1 -.501559.501559h-1.561042z" fill="#f98d6b"/><path d="m44.180737 53.615504h-1.561043a.50155866.50155866 0 0 1 -.501559-.501559.50155866.50155866 0 0 1 .501559-.501558h1.561043z" fill="#9876dc"/></g></g></svg>