<svg height="800" viewBox="0 0 467.046 467.046" width="800" xmlns="http://www.w3.org/2000/svg"><path d="m151.003 209.399c-20.07-49.928-16.02-107.593 12.882-154.786 36.298-27.013 100.621-27.836 139.801-5.754-77.829 11.987-152.683 160.54-152.683 160.54zm61.021-61.852s166.08-9.466 215.372 51.946c-.468-44.978-33.344-100.27-74.879-118.195-55.344-1.434-107.284 23.899-140.493 66.249zm84.071 21.907s91.229 139.101 62.693 212.491c38.72-22.895 70.156-79.026 64.922-123.946-26.421-48.638-74.332-80.963-127.615-88.545zm-129.614 244.306c39.188 22.085 103.518 21.254 139.797-5.757 28.925-47.19 32.958-104.849 12.882-154.781 0 0-74.847 148.553-152.679 160.538zm91.666-98.682s-166.081 9.46-215.361-51.945c.459 44.963 33.335 100.274 74.884 118.186 55.319 1.437 107.282-23.887 140.477-66.241zm-84.069-21.909s-91.229-139.102-62.69-212.481c-38.714 22.884-70.165 79.013-64.92 123.944 26.414 48.623 74.328 80.957 127.61 88.537zm292.968-59.647c0 128.769-104.754 233.523-233.522 233.523-128.77.001-233.524-104.754-233.524-233.523 0-128.763 104.759-233.522 233.523-233.522 128.769 0 233.523 104.759 233.523 233.522zm-21.558 0c0-116.878-95.083-211.968-211.965-211.968-116.878 0-211.979 95.089-211.979 211.968 0 116.883 95.101 211.97 211.979 211.97 116.882 0 211.965-95.087 211.965-211.97z" fill="#fff"/></svg>