<svg height="800" viewBox="0 0 511.999 511.999" width="800" xmlns="http://www.w3.org/2000/svg"><path d="m467.039 306.602c-3.059 0-6.075.305-9.017.905v-51.507-68.029c0-4.331-2.565-8.249-6.535-9.982-3.967-1.732-8.586-.949-11.763 1.996-4.531 4.202-10.425 6.515-16.599 6.515-13.464 0-24.419-10.959-24.419-24.43s10.955-24.43 24.419-24.43c6.173 0 12.068 2.314 16.599 6.515 3.177 2.946 7.796 3.728 11.763 1.996 3.97-1.733 6.535-5.652 6.535-9.982v-71.294c0-6.015-4.877-10.891-10.892-10.891h-42.023c.435-2.556.657-5.157.657-7.777 0-25.476-20.731-46.202-46.213-46.202-25.476 0-46.202 20.726-46.202 46.202 0 2.619.221 5.22.657 7.777h-58.002-51.514c.598-2.942.902-5.958.902-9.018 0-24.791-20.17-44.96-44.96-44.96-24.785 0-44.949 20.169-44.949 44.96 0 3.06.304 6.077.902 9.018h-51.516c-6.014 0-10.891 4.876-10.891 10.891v70.065c0 4.362 2.603 8.304 6.613 10.016s8.657.869 11.809-2.148c4.582-4.385 10.584-6.801 16.9-6.801 13.464 0 24.419 10.959 24.419 24.43s-10.955 24.43-24.419 24.43c-6.316 0-12.318-2.416-16.9-6.801-3.152-3.016-7.799-3.861-11.809-2.148-4.011 1.713-6.613 5.654-6.613 10.016v70.065 51.507c-2.942-.599-5.959-.905-9.017-.905-24.792.001-44.961 20.169-44.961 44.961s20.17 44.96 44.96 44.96c3.06 0 6.076-.304 9.017-.902v51.515c0 6.015 4.877 10.892 10.891 10.892h51.516c-.598 2.941-.902 5.958-.902 9.018 0 24.785 20.165 44.949 44.949 44.949 24.791 0 44.96-20.165 44.96-44.949 0-3.059-.304-6.077-.902-9.018h51.515 51.504c-.598 2.941-.902 5.959-.902 9.018 0 24.785 20.17 44.949 44.96 44.949s44.96-20.165 44.96-44.949c0-3.059-.305-6.076-.904-9.018h51.506c6.014 0 10.892-4.876 10.892-10.892v-51.515c2.941.598 5.958.902 9.017.902 24.791 0 44.96-20.169 44.96-44.96s-20.168-44.96-44.958-44.96zm-200.141-230.836h62.679c3.958 0 7.603-2.147 9.524-5.607 1.92-3.46 1.812-7.69-.282-11.048-2.412-3.868-3.687-8.33-3.687-12.905 0-13.464 10.955-24.419 24.419-24.419 13.471 0 24.43 10.955 24.43 24.419 0 4.576-1.274 9.038-3.687 12.905-2.094 3.358-2.201 7.587-.282 11.048s5.566 5.607 9.524 5.607h46.703v41.984c-4.216-1.247-8.625-1.892-13.113-1.892-25.476 0-46.202 20.731-46.202 46.213s20.726 46.213 46.202 46.213c4.488 0 8.897-.646 13.113-1.892v38.716h-57.039c-4.09 0-7.834 2.292-9.697 5.932-1.862 3.64-1.527 8.018.866 11.334 2.863 3.968 4.377 8.648 4.377 13.535 0 12.78-10.397 23.177-23.177 23.177s-23.177-10.397-23.177-23.177c0-4.897 1.511-9.577 4.366-13.535 2.393-3.315 2.728-7.693.866-11.334s-5.607-5.932-9.697-5.932h-57.028v-40.613c2.941.598 5.958.903 9.018.903 24.791 0 44.96-20.169 44.96-44.96s-20.17-44.96-44.96-44.96c-3.062 0-6.077.304-9.018.903v-40.615zm-191.138 128.867c4.339 1.329 8.894 2.017 13.539 2.017 25.476 0 46.202-20.731 46.202-46.213s-20.725-46.213-46.202-46.213c-4.645 0-9.199.688-13.539 2.017v-40.475h57.039c4.09 0 7.834-2.292 9.697-5.932 1.862-3.64 1.527-8.018-.866-11.334-2.856-3.957-4.365-8.637-4.365-13.535 0-12.78 10.392-23.177 23.166-23.177 12.78 0 23.177 10.397 23.177 23.177 0 4.897-1.511 9.577-4.366 13.535-2.393 3.315-2.727 7.693-.866 11.334 1.862 3.641 5.607 5.932 9.697 5.932h57.039v57.039c0 4.092 2.294 7.839 5.938 9.7 3.644 1.86 8.025 1.522 11.339-.878 3.948-2.858 8.625-4.369 13.524-4.369 12.78 0 23.177 10.397 23.177 23.177s-10.397 23.177-23.177 23.177c-4.899 0-9.576-1.511-13.524-4.369-3.313-2.399-7.695-2.738-11.339-.877-3.644 1.86-5.938 5.607-5.938 9.7v57.039h-57.039c-4.09 0-7.834 2.292-9.697 5.932-1.861 3.641-1.527 8.018.866 11.334 2.856 3.958 4.366 8.638 4.366 13.535 0 12.78-10.397 23.177-23.177 23.177-12.775 0-23.166-10.397-23.166-23.177 0-4.898 1.51-9.578 4.365-13.535 2.393-3.315 2.728-7.693.866-11.334s-5.607-5.932-9.697-5.932h-57.039zm175.285 164.875c-3.641 1.861-5.932 5.607-5.932 9.697v57.039h-57.04c-4.09 0-7.834 2.292-9.697 5.932-1.862 3.64-1.527 8.018.866 11.335 2.857 3.957 4.366 8.637 4.366 13.535 0 12.775-10.397 23.166-23.177 23.166-12.775 0-23.166-10.393-23.166-23.166 0-4.899 1.51-9.579 4.365-13.535 2.393-3.316 2.728-7.694.866-11.335s-5.607-5.932-9.697-5.932h-57.039v-57.039c0-4.09-2.292-7.834-5.932-9.697-3.643-1.864-8.019-1.528-11.334.865-3.957 2.856-8.637 4.365-13.535 4.365-12.78 0-23.177-10.397-23.177-23.177s10.397-23.177 23.177-23.177c4.887 0 9.567 1.514 13.535 4.377 3.315 2.393 7.692 2.728 11.334.865 3.641-1.861 5.932-5.607 5.932-9.697v-57.039h40.624c-.598 2.941-.902 5.958-.902 9.018 0 24.791 20.165 44.96 44.949 44.96 24.791 0 44.96-20.169 44.96-44.96 0-3.06-.304-6.076-.902-9.018h40.623v57.039c0 4.09 2.292 7.834 5.932 9.697 3.641 1.862 8.017 1.527 11.334-.865 3.968-2.863 8.647-4.377 13.536-4.377 12.78 0 23.177 10.397 23.177 23.177s-10.397 23.177-23.177 23.177c-4.898 0-9.579-1.51-13.536-4.365-3.315-2.393-7.692-2.729-11.333-.865zm215.994 5.231c-4.898 0-9.578-1.51-13.535-4.365-3.315-2.393-7.693-2.728-11.334-.865-3.641 1.861-5.932 5.607-5.932 9.697v57.039h-57.038c-4.09 0-7.834 2.292-9.697 5.932-1.862 3.64-1.527 8.018.866 11.335 2.863 3.967 4.377 8.647 4.377 13.535 0 12.775-10.397 23.166-23.177 23.166s-23.177-10.393-23.177-23.166c0-4.898 1.51-9.578 4.366-13.535 2.393-3.316 2.728-7.694.866-11.335s-5.607-5.932-9.697-5.932h-57.028v-40.623c2.941.598 5.959.902 9.018.902 24.791 0 44.96-20.169 44.96-44.96s-20.17-44.96-44.96-44.96c-3.059 0-6.076.305-9.018.905v-40.616h40.612c-.598 2.942-.902 5.958-.902 9.018 0 24.791 20.17 44.96 44.96 44.96s44.96-20.169 44.96-44.96c0-3.059-.305-6.076-.904-9.018h40.615v57.039c0 4.09 2.292 7.834 5.932 9.697 3.642 1.862 8.018 1.529 11.334-.865 3.968-2.863 8.647-4.377 13.535-4.377 12.78 0 23.177 10.397 23.177 23.177s-10.399 23.175-23.179 23.175z" fill="#fff"/></svg>