<svg clip-rule="evenodd" fill-rule="evenodd" height="800" image-rendering="optimizeQuality" shape-rendering="geometricPrecision" text-rendering="geometricPrecision" viewBox="0 0 800 800" width="800" xmlns="http://www.w3.org/2000/svg"><path d="m504.09609 398.36058h-32.35928v305.32721h32.35928zm-329.82715-395.2019476 165.45264 57.2498296 5.09373-14.703081c.17188-.499999.35938-.999997.59375-1.468746 5.76561-14.453082 20.74994-23.062431 36.06239-20.859313 3.99999.578124 7.42186 1.85937 11.18747 3.171866l95.26534 32.968651c1.28125.437499 2.53124.828123 3.74999 1.421871 7.98435 3.24999 14.17183 9.281222 17.68745 16.546826 3.45311 7.124978 4.37498 15.515578 2.12499 23.640554-.26562.95312-.54687 1.95312-.85937 2.85937l-4.79686 13.89058 167.10887 57.82795c2.23437.76562 3.85937 1.375 5.99998 2.51562 10.71872 5.76561 16.17183 17.89057 13.17184 29.73428-.32812 1.28125-.6875 2.48437-1.125 3.71874l-18.76557 54.23422c-2.60936 7.5781-10.89059 11.57809-18.45307 8.96872l-30.64053-10.60934a126.7965 126.7965 0 0 1 10.24997 44.12486c1.90624 1.21875 3.67186 2.625 5.24998 4.18749 5.49999 5.42186 9.0781 12.71871 9.2656 20.84369.0312 1.71874-.17187 3.45311-.32812 5.15623l-39.90613 428.1706c-.51563 5.62498-1.45312 10.62497-4.29686 15.9062-5.49999 10.23435-15.67183 17.3437-28.34367 17.3437h-392.10821c-8.31248 0-14.35933-.73437-21.35931-5.51561-8.24998-5.64061-13.65621-15.1562-14.60933-25.71867l-39.65613-431.42059c-.125-1.35937-.25-2.84374-.20313-4.18748.28125-8.04686 3.81249-15.24996 9.28122-20.60932 4.34374-4.26561 10.0781-7.40623 16.29683-8.7656-.29687-1.51562-.46875-3.06249-.46875-4.67186v-103.68719c0-12.90621 10.56247-23.46868 23.46868-23.46868h123.31214c12.89059 0 23.45305 10.56247 23.45305 23.46868v35.07802c19.35932-15.89058 44.12487-25.43742 71.12479-25.43742a111.74967 111.74967 0 0 1 50.8436 12.17184c6.53123-5.46874 13.60933-10.31247 21.15619-14.40621l-321.4053-111.218417c-7.5781-2.624992-11.59371-10.890592-8.98435-18.468694l.10938-.312499 17.64057-50.984223c7.3906-21.34368667 20.71869-25.8436732 41.35925-18.6874446zm224.60871 395.2019476h-32.3749v305.32721h32.3749zm-105.21843 0h-32.35929v305.32721h32.35929zm321.17091-66.37481h-474.37359c-3.10936 0-4.59373.53125-4.29686 3.82812l39.23426 426.87372c.25 2.64062.20312 8.3281 3.95311 8.2656h395.70195c3.24999 0 3.62499-4.57811 3.84374-6.93748l39.953-428.48309c.25-2.76562-1.39062-3.54687-4.01561-3.54687zm-351.17082-37.31238h15.31245v-81.74976c0-9.34372-7.65623-16.98432-16.99995-16.98432h-89.32786c-9.34373 0-16.98433 7.6406-16.98433 16.98432v81.74976zm156.43703 3.81248h172.24948c-3.93749-23.82805-17.53119-44.37486-36.62489-57.53107l-.23437-.17188-.35938-.23437-.59374-.40625-.59375-.39063-.0312-.0156-.57813-.39062-.60937-.375-.40625-.26563-.20312-.125-.625-.375-.60937-.375-.17188-.0937-.45312-.26563-.625-.35937-.5625-.32813-.0625-.0312-.625-.35937-.64062-.34375-.64062-.34375-.64062-.32812-.64063-.34375-.0937-.0469-.54687-.26562-.65625-.32812-.5-.25-.14062-.0625-.65625-.3125-.67187-.3125-.25-.10938-.40625-.1875-.67187-.29687-.65625-.28125-.0156-.0156-.65625-.26563-1.10937-.45312-.25-.0937-1.31249-.51563-.0312-.0156-.1875-.0781-.5-.18749-.6875-.25-.625-.21875-.0625-.0156-.70312-.25-.6875-.23437-.375-.10938-.32812-.10937-.70312-.23438-.70313-.20312-.0937-.0312-.60937-.1875-.70312-.20312-.54687-.15625-.17188-.0469-.70312-.1875-.71875-.1875-.28125-.0781-.4375-.10938-.71875-.17187-.71874-.17188h-.0156l-.71875-.15624-1.18749-.26563-.26563-.0469-.71874-.14063-.75-.14062-.1875-.0469-.53125-.0937-.75-.125-.65625-.10937-.0781-.0156-.75-.10937-.73437-.10938-.375-.0625-.375-.0469-.75-.0937-.74999-.0781-.0937-.0156-.65625-.0781-.75-.0781-.57812-.0469-.17188-.0156-.76562-.0625-.75-.0625-.29687-.0156-.46875-.0312c-1.84375-.125-3.70312-.1875-5.57811-.1875-42.98425 0-78.81226 30.82803-86.12474 72.92165z" fill="#fff" stroke-width="1.5625"/></svg>