<svg height="800" viewBox="0 0 32 32" width="800" xmlns="http://www.w3.org/2000/svg"><path d="m26.758622 13.241379v-7.1724134c0-2.1329655-1.729105-3.862069-3.86207-3.862069s-3.862069 1.7291035-3.862069 3.862069v6.5467574c2.976 1.84938 4.965518 5.138759 4.965518 8.901518 0 5.789793-4.692966 10.482759-10.48276 10.482759-5.7897925 0-10.482758-4.692966-10.482758-10.481655 0-5.789794 4.6929655-10.482759 10.482758-10.482759 1.158622 0 2.268691.19531 3.310346.541792v-5.5084124c0-3.3511724 2.717793-6.0689656 6.068965-6.0689656 3.351173 0 6.068965 2.7177932 6.068965 6.0689656v7.1724134zm-13.241381-.551724c-4.8750338 0-8.8275856 3.952552-8.8275856 8.827586s3.9525518 8.826484 8.8275856 8.826484c4.875035 0 8.827587-3.95145 8.827587-8.826484s-3.952552-8.827586-8.827587-8.827586zm0 17.103448c-4.5715855 0-8.2758614-3.704275-8.2758614-8.274758 0-4.572691 3.7042759-8.276966 8.2758614-8.276966 4.571588 0 8.275863 3.704275 8.275863 8.276966 0 4.570483-3.704275 8.274758-8.275863 8.274758zm1.655173-10.481655c0-.914759-.741517-1.655172-1.655173-1.655172-.913655 0-1.655172.740413-1.655172 1.655172 0 .782345.556138 1.409104 1.287724 1.580138l-1.287724 5.039449h3.378759l-1.449932-5.020691c.777932-.135723 1.381518-.782344 1.381518-1.598896z" fill="#fff" stroke-width="1.10344"/></svg>