<svg height="800" viewBox="0 0 211.66666 211.66666" width="800" xmlns="http://www.w3.org/2000/svg"><path d="m81.186156 84.350352h52.916664v52.916668h-52.916664z" fill="none" opacity="0"/><g transform="matrix(.42742463 0 0 .42742463 -1.366048 -3.15995)"><g fill="#fff"><path d="m309.557 108.115h-117.508v-83.935c0-9.233 7.554-16.787 16.787-16.787h83.934c9.233 0 16.787 7.554 16.787 16.787z"/><path d="m175.261 108.11392c-5.03599 0-8.39058 3.35943-8.39058 8.39542v201.44184c0 5.03599 3.35459 8.39058 8.39058 8.39058h151.0838c5.03599 0 8.39159-3.35459 8.39059-8.39058v-201.44184c0-5.03599-3.3546-8.39542-8.39059-8.39542zm75.70875 62.63199 12.49641 22.55545h-7.89247v28.00087l15.61085-9.00477v-7.69419h-3.20632v-16.28306h16.39913v16.28306h-3.98493v12.99453l-24.81873 14.33412v12.15306c3.50252 1.74799 5.75493 5.36467 5.75493 9.26592 0 5.71224-4.64699 10.35887-10.35887 10.35887-5.71207 0-10.36371-4.64663-10.36371-10.35887 0-3.90125 2.25724-7.51811 5.75976-9.26592v-2.59697l-24.82357-14.32929v-15.82847c-2.66674-1.61599-4.31377-4.52052-4.31377-7.62649 0-4.91842 3.99894-8.92256 8.91772-8.92256s8.92255 4.00414 8.92255 8.92256c0 3.10597-1.64685 6.01141-4.31377 7.62649v10.52813l15.61084 9.00961v-37.56663h-7.89731z"/><path d="m275.984 376.705h-50.361c-5.036 0-8.393-3.357-8.393-8.393v-41.967h67.148v41.967c-.001 5.036-3.358 8.393-8.394 8.393"/><path d="m267.59 494.213v-117.508h-33.574v117.508z"/></g><g fill="none"><path d="m326.344 334.738h-151.082c-9.233 0-16.787-7.554-16.787-16.787v-201.443c0-9.233 7.554-16.787 16.787-16.787h151.082c9.233 0 16.787 7.554 16.787 16.787v201.443c0 9.233-7.554 16.787-16.787 16.787zm0-16.787v8.393zm-151.082-201.443v201.443h151.082v-201.443z"/><path d="m275.984 385.098h-50.361c-9.233 0-16.787-7.554-16.787-16.787v-41.967c0-5.036 3.357-8.393 8.393-8.393h67.148c5.036 0 8.393 3.357 8.393 8.393v41.967c0 9.233-7.554 16.787-16.786 16.787zm0-16.787v8.393zm-50.361-33.573v33.574h50.361v-33.574z"/><path d="m267.59 502.607h-33.574c-5.036 0-8.393-3.357-8.393-8.393v-117.509c0-5.036 3.357-8.393 8.393-8.393h33.574c5.036 0 8.393 3.357 8.393 8.393v117.508c.001 5.036-3.357 8.394-8.393 8.394zm-25.18-16.787h16.787v-100.722h-16.787z"/></g></g></svg>