<svg height="800" viewBox="0 0 211.66666 211.66666" width="800" xmlns="http://www.w3.org/2000/svg"><g fill="#fff" transform="scale(4.0230073)"><path d="m.000001 0h52.916664v52.916664h-52.916664z" opacity="0"/><g transform="scale(.10335589)"><path d="m465.505 31.999h-419.042c-25.616 0-46.463 20.687-46.463 46.143v35.711c0 25.439 20.847 46.143 46.463 46.143h419.059c25.615 0 46.463-20.703 46.463-46.143v-35.711c-.001-25.456-20.848-46.143-46.48-46.143zm14.48 81.853c0 7.792-6.496 14.144-14.48 14.144h-419.042c-7.968 0-14.464-6.352-14.464-14.144v-35.71c0-7.808 6.496-14.144 14.464-14.144h419.059c7.968 0 14.464 6.336 14.464 14.144v35.71z"/><path d="m351.989 79.998h-239.992c-8.832 0-16 7.168-16 16s7.168 16 16 16h239.992c8.832 0 16-7.168 16-16s-7.168-16-16-16z"/><path d="m75.838 84.301c-5.92-6.08-16.799-6.08-22.719 0-2.88 2.88-4.64 7.04-4.64 11.2 0 4.32 1.76 8.48 4.64 11.36 3.04 3.04 7.2 4.64 11.36 4.64s8.32-1.6 11.36-4.64c2.88-3.04 4.64-7.04 4.64-11.36-.002-4.16-1.761-8.32-4.641-11.2z"/><path d="m460.146 84.301c-5.92-6.08-16.639-6.08-22.559 0-3.04 2.88-4.64 7.04-4.64 11.2 0 4.32 1.6 8.32 4.64 11.36s7.04 4.64 11.36 4.64c4.16 0 8.32-1.6 11.2-4.64 3.04-3.04 4.8-7.04 4.8-11.36-.002-4.16-1.761-8.32-4.801-11.2z"/><path d="m411.987 84.301c-5.92-6.08-16.64-6.08-22.719 0-2.88 2.88-4.64 7.04-4.64 11.2 0 4.32 1.76 8.48 4.64 11.36 3.04 3.04 7.2 4.64 11.36 4.64 4.32 0 8.32-1.6 11.36-4.64s4.64-7.04 4.64-11.36c-.001-4.16-1.601-8.32-4.641-11.2z"/><path d="m465.009 191.994h-129.019c-8.832 0-16 7.168-16 16s7.168 15.999 16 15.999h129.02c7.264 0 14.976 4.32 14.976 12.336v36.399c0 7.856-7.28 15.264-14.976 15.264h-129.02c-8.832 0-16 7.152-16 15.999s7.168 16 16 16h129.02c25.471 0 46.975-21.647 46.975-47.263v-36.399c-.001-24.864-20.64-44.335-46.976-44.335z"/><path d="m175.995 287.991h-129.308c-7.68 0-14.688-7.28-14.688-15.264v-36.399c0-8.096 7.392-12.336 14.688-12.336h129.308c8.832 0 16-7.168 16-15.999s-7.168-16-16-16h-129.308c-26.176.001-46.687 19.472-46.687 44.336v36.399c0 25.615 21.375 47.263 46.687 47.263h129.308c8.832 0 16-7.152 16-16s-7.169-16-16-16z"/><path d="m159.995 239.993h-47.998c-8.832 0-16 7.168-16 16s7.168 16 16 16h47.998c8.832 0 16-7.168 16-16s-7.168-16-16-16z"/><path d="m75.838 243.816c-5.92-5.92-16.799-5.92-22.719 0-2.88 3.04-4.64 7.2-4.64 11.36 0 4.32 1.76 8.32 4.8 11.36 2.88 3.04 7.04 4.64 11.2 4.64s8.32-1.6 11.36-4.64 4.64-7.04 4.64-11.36c-.002-4.16-1.761-8.32-4.641-11.36z"/><path d="m460.146 243.816c-5.92-5.92-16.639-5.92-22.559 0-3.04 3.04-4.64 7.2-4.64 11.36 0 4.32 1.6 8.32 4.64 11.36s7.04 4.64 11.36 4.64c4.16 0 8.32-1.6 11.2-4.64 3.04-3.04 4.8-7.04 4.8-11.36-.002-4.16-1.761-8.32-4.801-11.36z"/><path d="m411.987 243.976c-5.92-6.08-16.799-6.08-22.719-.16-2.88 3.04-4.64 7.2-4.64 11.36 0 4.32 1.76 8.32 4.8 11.36 2.88 3.04 7.04 4.64 11.2 4.64 4.32 0 8.32-1.6 11.36-4.64s4.64-7.04 4.64-11.36c-.001-4.16-1.601-8.32-4.641-11.2z"/><path d="m465.505 351.989h-419.042c-25.616 0-46.463 20.687-46.463 46.143v35.727c0 25.439 20.847 46.127 46.463 46.127h419.059c25.615 0 46.463-20.687 46.463-46.143v-35.727c-.001-25.44-20.848-46.127-46.48-46.127zm14.48 81.869c0 7.776-6.496 14.128-14.48 14.128h-419.042c-7.968 0-14.464-6.352-14.464-14.144v-35.727c0-7.792 6.496-14.128 14.464-14.128h419.059c7.968 0 14.464 6.336 14.464 14.144v35.727z"/><path d="m351.989 399.988h-239.992c-8.832 0-16 7.152-16 16s7.168 16 16 16h239.992c8.832 0 16-7.152 16-16s-7.168-16-16-16z"/><path d="m75.838 403.187c-5.92-5.92-16.799-5.92-22.559 0-3.04 3.024-4.8 7.184-4.8 11.36 0 4.16 1.76 8.32 4.64 11.36 3.04 2.88 7.2 4.64 11.36 4.64s8.32-1.776 11.36-4.64c2.88-3.04 4.64-7.2 4.64-11.36-.002-4.176-1.761-8.336-4.641-11.36z"/><path d="m460.146 403.187c-5.76-5.92-16.639-5.92-22.559 0-3.04 3.024-4.64 7.184-4.64 11.36 0 4.16 1.6 8.32 4.64 11.36 3.04 2.88 7.04 4.64 11.36 4.64 4.16 0 8.32-1.776 11.2-4.64 3.04-3.04 4.8-7.2 4.8-11.36-.002-4.176-1.761-8.336-4.801-11.36z"/><path d="m411.987 403.187c-5.92-5.92-16.639-5.92-22.559 0-3.04 3.024-4.8 7.184-4.8 11.36 0 4.16 1.76 8.32 4.8 11.36 2.88 2.88 7.04 4.64 11.2 4.64 4.32 0 8.32-1.776 11.36-4.64 3.04-3.04 4.64-7.2 4.64-11.36-.001-4.176-1.601-8.336-4.641-11.36z"/></g><path d="m2 9.528v-5.528a4 4 0 1 1 8 0v5.528a6 6 0 1 1 -8 0zm2-1.188a5.99 5.99 0 0 1 2-.34c.701 0 1.374.12 2 .341v-4.341a2 2 0 1 0 -4 0v4.341zm2 7.66a2 2 0 1 0 0-4 2 2 0 0 0 0 4z" transform="matrix(.86482499 0 0 .86482499 21.269383 17.163027)"/></g></svg>