<svg height="800" viewBox="0 0 211.66666 211.66666" width="800" xmlns="http://www.w3.org/2000/svg"><path d="m191.82291 23.151044v16.536457h-16.53646v-16.536457h-138.90624v16.536457h-16.53646v-16.536457h-19.8437506v165.364576h19.8437506v-16.53646h16.53646v16.53646h138.90624v-16.53646h16.53646v16.53646h19.84375v-165.364576zm-155.4427 123.474426h-16.53646v-26.45833h16.53646zm0-55.12594h-16.53646v-26.458332h16.53646zm90.98937 18.48736-42.058 25.10813c-.31005.18121-.68461.19401-.99467.012-.30345-.17441-.49733-.50394-.49733-.86567v-25.10153-25.101928c0-.355134.19389-.684607.49733-.865682.31006-.167847.68461-.161647.99467.0128l42.058 25.11477c.29725.16801.47789.4973.47789.83964 0 .34921-.1808.67218-.47789.84667zm64.45333 36.63858h-16.53646v-26.45833h16.53646zm0-55.12594h-16.53646v-26.458332h16.53646z" fill="#fff" stroke-width=".413413"/></svg>